<svg xmlns="http://www.w3.org/2000/svg" xmlns:xlink="http://www.w3.org/1999/xlink" width="147" height="48" viewBox="0 0 147 48">
    <defs>
        <linearGradient id="prefix__e" x1="61.045%" x2="26.513%" y1="4.946%" y2="71.879%">
            <stop offset="0%" stop-color="#00A0FF"/>
            <stop offset="1%" stop-color="#00A1FF"/>
            <stop offset="26%" stop-color="#00BEFF"/>
            <stop offset="51%" stop-color="#00D2FF"/>
            <stop offset="76%" stop-color="#00DFFF"/>
            <stop offset="100%" stop-color="#00E3FF"/>
        </linearGradient>
        <linearGradient id="prefix__f" x1="107.685%" x2="-130.64%" y1="50%" y2="50%">
            <stop offset="0%" stop-color="#FFE000"/>
            <stop offset="41%" stop-color="#FFBD00"/>
            <stop offset="78%" stop-color="orange"/>
            <stop offset="100%" stop-color="#FF9C00"/>
        </linearGradient>
        <linearGradient id="prefix__g" x1="86.271%" x2="-50.18%" y1="30.873%" y2="136.109%">
            <stop offset="0%" stop-color="#FF3A44"/>
            <stop offset="100%" stop-color="#C31162"/>
        </linearGradient>
        <linearGradient id="prefix__h" x1="-18.825%" x2="42.086%" y1="-11.91%" y2="35.079%">
            <stop offset="0%" stop-color="#32A071"/>
            <stop offset="7%" stop-color="#2DA771"/>
            <stop offset="48%" stop-color="#15CF74"/>
            <stop offset="80%" stop-color="#06E775"/>
            <stop offset="100%" stop-color="#00F076"/>
        </linearGradient>
        <path id="prefix__a" d="M0 0L146.4 0 146.4 48 0 48z"/>
        <path id="prefix__c" d="M0 0L147 0 147 48 0 48z"/>
    </defs>
    <g fill="none" fill-rule="evenodd">
        <mask id="prefix__b" fill="#fff">
            <use xlink:href="#prefix__a"/>
        </mask>
        <path fill="#000" d="M140.978 48H5.422C2.44 48 0 45.3 0 42V6c0-3.3 2.44-6 5.422-6h135.556c2.982 0 5.422 2.7 5.422 6v36c0 3.3-2.44 6-5.422 6" mask="url(#prefix__b)"/>
        <g>
            <mask id="prefix__d" fill="#fff">
                <use xlink:href="#prefix__c"/>
            </mask>
            <g fill-rule="nonzero" mask="url(#prefix__d)">
                <g>
                    <path fill="url(#prefix__e)" d="M.807.49C.412.956.21 1.557.243 2.17v26.543c-.04.613.162 1.216.564 1.68l.084.096L15.76 15.621v-.36L.891.405.807.49z" transform="translate(12 8.4)"/>
                    <path fill="url(#prefix__f)" d="M20.68 20.577l-4.92-4.956v-.36l4.92-4.956.107.072 5.892 3.336c1.68.948 1.68 2.508 0 3.468l-5.868 3.336-.132.06z" transform="translate(12 8.4)"/>
                    <path fill="url(#prefix__g)" d="M20.823 20.505l-5.064-5.064L.807 30.393c.7.623 1.744.658 2.484.084l17.532-9.972" transform="translate(12 8.4)"/>
                    <path fill="url(#prefix__h)" d="M20.823 10.377L3.291.417C2.556-.165 1.508-.135.807.49L15.76 15.441l5.064-5.064z" transform="translate(12 8.4)"/>
                    <path fill="#000" d="M20.68 20.397l-17.389 9.9c-.71.536-1.69.536-2.4 0l-.084.084.084.096c.71.536 1.69.536 2.4 0l17.532-9.972-.144-.108z" opacity=".2" transform="translate(12 8.4)"/>
                    <path fill="#000" d="M.807 30.225C.422 29.75.233 29.144.28 28.533v.18c-.04.613.162 1.216.564 1.68l.084-.084-.12-.084zM26.68 17.001l-6 3.396.107.108 5.892-3.336c.709-.3 1.197-.962 1.272-1.728-.152.693-.624 1.272-1.272 1.56z" opacity=".12" transform="translate(12 8.4)"/>
                    <path fill="#FFF" d="M3.291.585L26.68 13.881c.648.289 1.12.868 1.272 1.56-.075-.765-.563-1.428-1.272-1.728L3.291.417C1.623-.543.243.25.243 2.17v.18C.28.43 1.623-.363 3.291.585z" opacity=".25" transform="translate(12 8.4)"/>
                </g>
            </g>
            <g mask="url(#prefix__d)">
                <g>
                    <path fill="#FFF" d="M69.29 13.586h1.958V.474H69.29v13.112zm17.628-8.39l-2.242 5.686h-.069L82.28 5.197h-2.11l3.493 7.945-1.991 4.42h2.041l5.382-12.365h-2.177zm-11.1 6.9c-.64 0-1.534-.32-1.534-1.113 0-1.013 1.113-1.4 2.074-1.4.86 0 1.266.186 1.79.439-.153 1.214-1.198 2.075-2.33 2.075zm.238-7.186c-1.417 0-2.886.624-3.493 2.008l1.739.724c.37-.724 1.062-.96 1.788-.96 1.011 0 2.04.608 2.058 1.686v.135c-.356-.202-1.114-.505-2.042-.505-1.873 0-3.78 1.028-3.78 2.952 0 1.754 1.535 2.884 3.257 2.884 1.317 0 2.041-.59 2.496-1.282h.069v1.012h1.888V8.538c0-2.328-1.737-3.628-3.98-3.628zM63.959 6.793h-2.783V2.299h2.783c1.464 0 2.295 1.212 2.295 2.246 0 1.018-.831 2.248-2.295 2.248zm-.05-6.32h-4.69v13.113h1.957V8.618h2.732c2.17 0 4.302-1.57 4.302-4.073 0-2.502-2.132-4.071-4.302-4.071zM38.334 12.1c-1.351 0-2.484-1.131-2.484-2.687 0-1.57 1.133-2.72 2.484-2.72 1.335 0 2.382 1.15 2.382 2.72 0 1.556-1.047 2.687-2.382 2.687zm2.248-6.168h-.069c-.439-.523-1.284-.997-2.348-.997-2.23 0-4.274 1.96-4.274 4.478 0 2.501 2.044 4.445 4.274 4.445 1.064 0 1.91-.474 2.348-1.015h.069v.643c0 1.707-.913 2.62-2.382 2.62-1.2 0-1.944-.863-2.248-1.589l-1.706.71c.49 1.182 1.79 2.636 3.954 2.636 2.298 0 4.24-1.352 4.24-4.647v-8.01h-1.858v.726zm3.211 7.655h1.96V.472h-1.96v13.114zm4.85-4.326c-.051-1.723 1.335-2.602 2.33-2.602.78 0 1.437.388 1.657.946L48.643 9.26zm6.083-1.487c-.372-.997-1.505-2.839-3.82-2.839-2.297 0-4.207 1.808-4.207 4.462 0 2.5 1.893 4.461 4.427 4.461 2.045 0 3.228-1.25 3.718-1.977l-1.52-1.014c-.508.744-1.2 1.233-2.198 1.233-.997 0-1.706-.456-2.163-1.352L54.93 8.28l-.203-.508zM7.202 6.303v1.893h4.53c-.135 1.064-.49 1.842-1.032 2.383-.658.659-1.69 1.386-3.498 1.386-2.788 0-4.968-2.248-4.968-5.037 0-2.787 2.18-5.036 4.968-5.036 1.504 0 2.603.592 3.414 1.352l1.335-1.334C10.819.828 9.314 0 7.202 0 3.382 0 .172 3.11.172 6.928c0 3.819 3.21 6.93 7.03 6.93 2.062 0 3.617-.678 4.833-1.945 1.251-1.25 1.64-3.007 1.64-4.427 0-.44-.035-.844-.102-1.183h-6.37zM18.823 12.1c-1.352 0-2.517-1.115-2.517-2.703 0-1.606 1.165-2.704 2.517-2.704 1.353 0 2.518 1.098 2.518 2.704 0 1.588-1.165 2.703-2.518 2.703zm0-7.165c-2.467 0-4.478 1.876-4.478 4.462 0 2.569 2.011 4.461 4.478 4.461 2.467 0 4.479-1.892 4.479-4.461 0-2.586-2.012-4.462-4.479-4.462zm9.77 7.165c-1.353 0-2.518-1.115-2.518-2.703 0-1.606 1.165-2.704 2.517-2.704 1.352 0 2.518 1.098 2.518 2.704 0 1.588-1.166 2.703-2.518 2.703zm0-7.165c-2.468 0-4.479 1.876-4.479 4.462 0 2.569 2.011 4.461 4.478 4.461 2.466 0 4.478-1.892 4.478-4.461 0-2.586-2.012-4.462-4.478-4.462z" transform="translate(46.8 8.4)"/>
                    <g>
                        <path fill="#FFF" d="M9.261 5.28l-.561.259c-.26-.52-.573-1.048-.918-1.501l.54-.249c.26.357.68 1.015.94 1.49m-1.232.465l-.55.26c-.249-.52-.563-1.08-.887-1.524l.55-.237c.249.356.66 1.026.887 1.5M1.083 2.687c.702-.064 2.723-.259 4.689-.432 1.166-.097 2.172-.15 2.885-.183v.864c-.616 0-1.546.01-2.096.173-1.524.487-2.442 2.118-2.442 3.381 0 2.085 1.944 2.745 3.684 2.81l-.314.905C5.513 10.12 3.255 9.06 3.255 6.673c0-1.665 1.005-3.024 1.988-3.609-.94.108-3.857.39-5.013.628L.133 2.74c.41-.01.745-.032.95-.054" transform="translate(46.8 8.4) translate(0 19.334)"/>
                        <path stroke="#FFF" stroke-width=".5" d="M9.261 5.28l-.561.259c-.26-.52-.573-1.048-.918-1.501l.54-.249c.26.357.68 1.015.94 1.49zm-1.23.464l-.552.26c-.248-.52-.562-1.08-.886-1.524l.55-.237c.249.356.66 1.026.887 1.5zM1.082 2.686c.702-.064 2.723-.259 4.689-.432 1.166-.097 2.172-.15 2.885-.183v.864c-.616 0-1.546.01-2.096.173-1.524.487-2.442 2.118-2.442 3.381 0 2.085 1.944 2.745 3.684 2.81l-.314.905C5.513 10.12 3.255 9.06 3.255 6.673c0-1.665 1.005-3.024 1.988-3.609-.94.108-3.857.39-5.013.628L.133 2.74c.41-.01.745-.032.95-.054z" transform="translate(46.8 8.4) translate(0 19.334)"/>
                        <path fill="#FFF" d="M19.989 7.16h-4.43v2.397c0 .573-.172.811-.572.94-.4.13-1.092.15-2.225.14-.066-.226-.217-.583-.346-.8.907.034 1.75.022 1.998.011.238 0 .336-.074.336-.302V7.159h-4.44v-.788h4.44V4.62h-3.717v-.767h3.717V2.19c-1.188.13-2.41.205-3.522.259-.033-.215-.13-.528-.206-.713 2.55-.117 5.682-.4 7.304-.906l.604.637c-.918.28-2.096.485-3.37.636v1.751h3.824v.767H15.56v1.75h4.429v.79z" transform="translate(46.8 8.4) translate(0 19.334)"/>
                        <path stroke="#FFF" stroke-width=".5" d="M19.989 7.16h-4.43v2.397c0 .573-.172.811-.572.94-.4.13-1.092.15-2.225.14-.066-.226-.217-.583-.346-.8.907.034 1.75.022 1.998.011.238 0 .336-.074.336-.302V7.159h-4.44v-.788h4.44V4.62h-3.717v-.767h3.717V2.19c-1.188.13-2.41.205-3.522.259-.033-.215-.13-.528-.206-.713 2.55-.117 5.682-.4 7.304-.906l.604.637c-.918.28-2.096.485-3.37.636v1.751h3.824v.767H15.56v1.75h4.429v.79z" transform="translate(46.8 8.4) translate(0 19.334)"/>
                        <path fill="#FFF" d="M25.303 2.568c1.168.194 3.328.151 4.398 0v.885c-1.146.12-3.22.12-4.387 0l-.01-.885zm.423 4.364c-.097.389-.142.691-.142.983 0 .486.324.962 1.794.962.961 0 1.782-.086 2.647-.282l.01.908c-.659.13-1.555.217-2.668.217-1.794 0-2.593-.594-2.593-1.6 0-.389.076-.81.173-1.263l.779.075zm-2.442-5.186c-.065.185-.162.53-.205.725-.206.982-.52 2.894-.52 4.094 0 .518.022.95.088 1.47.182-.487.42-1.114.594-1.536l.464.346c-.27.757-.659 1.892-.756 2.398-.032.152-.054.357-.054.477l.032.377-.777.054c-.217-.756-.39-1.988-.39-3.435 0-1.577.345-3.414.475-4.289.034-.248.076-.53.076-.756l.973.075z" transform="translate(46.8 8.4) translate(0 19.334)"/>
                        <path stroke="#FFF" stroke-width=".5" d="M25.303 2.568c1.168.194 3.328.151 4.398 0v.885c-1.146.12-3.22.12-4.387 0l-.01-.885zm.423 4.364c-.097.389-.142.691-.142.983 0 .486.324.962 1.794.962.961 0 1.782-.086 2.647-.282l.01.908c-.659.13-1.555.217-2.668.217-1.794 0-2.593-.594-2.593-1.6 0-.389.076-.81.173-1.263l.779.075zm-2.442-5.186c-.065.185-.162.53-.205.725-.206.982-.52 2.894-.52 4.094 0 .518.022.95.088 1.47.182-.487.42-1.114.594-1.536l.464.346c-.27.757-.659 1.892-.756 2.398-.032.152-.054.357-.054.477l.032.377-.777.054c-.217-.756-.39-1.988-.39-3.435 0-1.577.345-3.414.475-4.289.034-.248.076-.53.076-.756l.973.075z" transform="translate(46.8 8.4) translate(0 19.334)"/>
                        <path fill="#FFF" d="M36.923 1.466c0 1.912.248 5.985 4.482 8.502-.182.129-.506.474-.648.67-2.658-1.61-3.803-3.976-4.289-6.018-.799 2.798-2.16 4.765-4.31 6.027-.151-.16-.508-.496-.724-.636 2.388-1.243 3.717-3.415 4.375-6.439l.477.076c-.077-.497-.12-.972-.14-1.383h-2.659v-.799h3.436z" transform="translate(46.8 8.4) translate(0 19.334)"/>
                        <path stroke="#FFF" stroke-width=".5" d="M36.923 1.466c0 1.912.248 5.985 4.482 8.502-.182.129-.506.474-.648.67-2.658-1.61-3.803-3.976-4.289-6.018-.799 2.798-2.16 4.765-4.31 6.027-.151-.16-.508-.496-.724-.636 2.388-1.243 3.717-3.415 4.375-6.439l.477.076c-.077-.497-.12-.972-.14-1.383h-2.659v-.799h3.436z" transform="translate(46.8 8.4) translate(0 19.334)"/>
                        <path fill="#FFF" d="M51.927 8.985c-.562.572-1.232.896-1.967.896-.702 0-1.188-.475-1.188-1.362 0-1.188.4-2.948.4-3.985 0-.617-.314-.875-.854-.875-.865 0-2.161 1.004-3.144 2.063-.021.454-.031.875-.031 1.253 0 .973 0 1.621.042 2.582.012.184.032.454.055.648h-.94c.01-.15.032-.464.032-.637.01-1.026.01-1.556.032-2.744 0-.108.01-.249.01-.41-.519.789-1.22 1.814-1.738 2.528l-.54-.745c.594-.746 1.825-2.41 2.365-3.252l.065-1.028c-.486.054-1.416.185-2.084.272l-.088-.898c.239.012.444.012.702-.01.346-.021.973-.086 1.524-.172.033-.51.054-.887.054-1.006 0-.248.012-.53-.043-.8l1.026.033c-.054.26-.14.864-.215 1.61l.053-.022.313.379c-.128.194-.313.486-.474.745-.023.195-.033.4-.054.605.83-.767 2.203-1.793 3.273-1.793 1.004 0 1.512.56 1.512 1.437 0 1.068-.4 2.916-.4 3.997 0 .366.174.648.552.648.539 0 1.112-.346 1.61-.886l.14.929z" transform="translate(46.8 8.4) translate(0 19.334)"/>
                        <path stroke="#FFF" stroke-width=".5" d="M51.927 8.985c-.562.572-1.232.896-1.967.896-.702 0-1.188-.475-1.188-1.362 0-1.188.4-2.948.4-3.985 0-.617-.314-.875-.854-.875-.865 0-2.161 1.004-3.144 2.063-.021.454-.031.875-.031 1.253 0 .973 0 1.621.042 2.582.012.184.032.454.055.648h-.94c.01-.15.032-.464.032-.637.01-1.026.01-1.556.032-2.744 0-.108.01-.249.01-.41-.519.789-1.22 1.814-1.738 2.528l-.54-.745c.594-.746 1.825-2.41 2.365-3.252l.065-1.028c-.486.054-1.416.185-2.084.272l-.088-.898c.239.012.444.012.702-.01.346-.021.973-.086 1.524-.172.033-.51.054-.887.054-1.006 0-.248.012-.53-.043-.8l1.026.033c-.054.26-.14.864-.215 1.61l.053-.022.313.379c-.128.194-.313.486-.474.745-.023.195-.033.4-.054.605.83-.767 2.203-1.793 3.273-1.793 1.004 0 1.512.56 1.512 1.437 0 1.068-.4 2.916-.4 3.997 0 .366.174.648.552.648.539 0 1.112-.346 1.61-.886l.14.929z" transform="translate(46.8 8.4) translate(0 19.334)"/>
                        <path fill="#FFF" d="M57.219 7.71c-.346-.076-.691-.108-1.048-.108-1.103 0-1.728.378-1.728.961 0 .594.594.92 1.62.92.787 0 1.167-.369 1.167-1.102 0-.174-.011-.401-.011-.671zm.734-3.295c0 .702.054 1.739.108 2.669 1.373.378 2.55 1.123 3.328 1.825l-.519.799c-.68-.691-1.664-1.372-2.776-1.76.01.28.021.518.021.712 0 .875-.54 1.631-1.967 1.631-1.467 0-2.56-.474-2.56-1.695 0-.962.844-1.76 2.691-1.76.303 0 .605.02.907.064-.043-.865-.086-1.848-.086-2.485 0-.616 0-1.501-.01-1.955-.012-.389-.045-.854-.087-1.06h1.038c-.045.228-.077.735-.088 1.06-.01.292 0 .67 0 1.09.853-.02 2.203-.075 3.166-.204l.032.82c-.951.087-2.322.152-3.198.173v.076z" transform="translate(46.8 8.4) translate(0 19.334)"/>
                        <path stroke="#FFF" stroke-width=".5" d="M57.219 7.71c-.346-.076-.691-.108-1.048-.108-1.103 0-1.728.378-1.728.961 0 .594.594.92 1.62.92.787 0 1.167-.369 1.167-1.102 0-.174-.011-.401-.011-.671zm.734-3.295c0 .702.054 1.739.108 2.669 1.373.378 2.55 1.123 3.328 1.825l-.519.799c-.68-.691-1.664-1.372-2.776-1.76.01.28.021.518.021.712 0 .875-.54 1.631-1.967 1.631-1.467 0-2.56-.474-2.56-1.695 0-.962.844-1.76 2.691-1.76.303 0 .605.02.907.064-.043-.865-.086-1.848-.086-2.485 0-.616 0-1.501-.01-1.955-.012-.389-.045-.854-.087-1.06h1.038c-.045.228-.077.735-.088 1.06-.01.292 0 .67 0 1.09.853-.02 2.203-.075 3.166-.204l.032.82c-.951.087-2.322.152-3.198.173v.076z" transform="translate(46.8 8.4) translate(0 19.334)"/>
                        <path fill="#FFF" d="M69.706 1.908l-.128.832c-1.19-.075-3.35-.292-4.56-.507l.14-.822c1.177.271 3.5.486 4.548.497m-1.89 2.788c-1.232 0-2.28.367-2.917.55-.324.087-.637.216-.896.314l-.272-.994c.293-.032.66-.097.974-.162.756-.172 1.976-.518 3.198-.518 1.522 0 2.656.853 2.656 2.377 0 2.322-2.062 3.64-4.84 4.051l-.507-.822c2.593-.324 4.43-1.34 4.43-3.262 0-.897-.724-1.534-1.826-1.534" transform="translate(46.8 8.4) translate(0 19.334)"/>
                        <path stroke="#FFF" stroke-width=".5" d="M69.706 1.908l-.128.832c-1.19-.075-3.35-.292-4.56-.507l.14-.822c1.177.271 3.5.486 4.548.497zm-1.89 2.788c-1.232 0-2.28.367-2.917.55-.324.087-.637.216-.896.314l-.272-.994c.293-.032.66-.097.974-.162.756-.172 1.976-.518 3.198-.518 1.522 0 2.656.853 2.656 2.377 0 2.322-2.062 3.64-4.84 4.051l-.507-.822c2.593-.324 4.43-1.34 4.43-3.262 0-.897-.724-1.534-1.826-1.534z" transform="translate(46.8 8.4) translate(0 19.334)"/>
                    </g>
                </g>
            </g>
            <path fill="#A6A6A6" d="M141.556 0H5.444C2.45 0 0 2.7 0 6v36c0 3.3 2.45 6 5.444 6h136.112c2.994 0 5.444-2.7 5.444-6V6c0-3.3-2.45-6-5.444-6m-.121 1C143.952 1 146 3.257 146 6.031V41.97c0 2.774-2.048 5.031-4.565 5.031H5.565C3.048 47 1 44.743 1 41.969V6.03C1 3.257 3.048 1 5.565 1h135.87" mask="url(#prefix__d)"/>
        </g>
    </g>
</svg>
