<?xml version="1.0" encoding="UTF-8"?>
<svg width="40px" height="40px" viewBox="0 0 40 40" version="1.1" xmlns="http://www.w3.org/2000/svg" xmlns:xlink="http://www.w3.org/1999/xlink">
    <title>icon</title>
    <g id="icon" stroke="none" stroke-width="1" fill="none" fill-rule="evenodd">
        <g id="Group-6">
            <rect id="Rectangle" x="0" y="2.27373675e-13" width="40" height="40"></rect>
            <path d="M37.977632,27.4124756 C38.0117071,27.4026408 38.0483339,27.4068327 38.0794321,27.4242452 C38.1104771,27.4416577 38.1333888,27.4708398 38.1431701,27.5053423 L38.1431701,27.5053423 L39.4214926,32.0191591 C39.4312739,32.0536617 39.4270743,32.0906902 39.4098507,32.1220757 C39.392627,32.1534612 39.3638147,32.1766241 39.3296332,32.1865127 L39.3296332,32.1865127 L38.4680268,32.435877 C38.455747,32.439424 38.4433077,32.4411438 38.4311342,32.4411438 C38.3728716,32.4411438 38.3193402,32.4024493 38.3024886,32.3430103 L38.3024886,32.3430103 L37.5667103,29.7450532 C36.6916014,31.3502286 35.6051842,32.8228217 34.3193663,34.1393471 C32.5250263,35.976528 30.4351204,37.4191329 28.107858,38.4269625 C25.6975077,39.4707995 23.1373543,40 20.4985251,40 C17.859696,40 15.2995426,39.4707995 12.8891922,38.4269625 C10.5618767,37.4191329 8.47202397,35.976528 6.67763076,34.1393471 C5.13335221,32.5581408 3.87560245,30.7526141 2.92761211,28.7615689 L2.92761211,28.7615689 L4.31990813,28.7615689 C5.16556677,30.3949052 6.25373826,31.9077513 7.56661425,33.251954 C11.0212797,36.7890581 15.6139269,38.7370557 20.4985251,38.7370557 C25.3831234,38.7370557 29.9757706,36.7890581 33.430436,33.251954 C34.6633603,31.9896009 35.6981067,30.5784352 36.5198968,29.0584414 L36.5198968,29.0584414 L33.822805,29.839156 C33.810472,29.842703 33.7980859,29.8444227 33.7858593,29.8444227 C33.7276498,29.8444227 33.6740652,29.8056745 33.6572137,29.7462893 L33.6572137,29.7462893 L33.4105544,28.8752339 C33.4007731,28.8407313 33.4049195,28.8037028 33.4221963,28.7723173 C33.4394199,28.7409318 33.4682323,28.7177689 33.5023606,28.7078803 L33.5023606,28.7078803 L37.7436778,27.4801909 Z M20.4985251,-1.89182003e-13 C23.1373543,-1.89182003e-13 25.6975077,0.529254292 28.107858,1.57309122 C30.4351204,2.58092081 32.5250263,4.0235257 34.3193663,5.86070664 C35.8871945,7.46593577 37.1604667,9.30193439 38.1132946,11.3290407 L38.1132946,11.3290407 L36.7230186,11.3290407 C35.8709809,9.661148 34.7674463,8.11702389 33.430436,6.74809971 C29.9757174,3.21099568 25.3831234,1.26299808 20.4985251,1.26299808 C15.6139269,1.26299808 11.0212797,3.21099568 7.56661425,6.74809971 C6.37658948,7.96649167 5.37209076,9.32396874 4.56470685,10.7837174 L4.56470685,10.7837174 L7.03055556,10.069912 C7.06468385,10.0600772 7.10131063,10.0642691 7.13235568,10.0817353 C7.16340073,10.0990941 7.1863124,10.1282762 7.19609372,10.1628325 L7.19609372,10.1628325 L7.44280617,11.0338879 C7.46311303,11.1057414 7.42202087,11.1806581 7.35094685,11.2012414 L7.35094685,11.2012414 L2.88614783,12.4936366 L2.88614783,12.4936366 L2.8757286,12.4965924 C2.86339564,12.5001394 2.85100951,12.5018591 2.83883602,12.5018591 C2.7805734,12.5018591 2.72704195,12.4631647 2.71019044,12.4037257 L2.71019044,12.4037257 L1.43181486,7.88996262 C1.42208671,7.85546005 1.42623313,7.8184316 1.44350992,7.78704609 C1.46068038,7.75566058 1.4895459,7.73249764 1.52367419,7.72260905 L1.52367419,7.72260905 L2.38533378,7.47324473 C2.4564078,7.45271516 2.53051191,7.49425797 2.55087193,7.56611144 L2.55087193,7.56611144 L3.35267411,10.3973639 C4.24091337,8.73672649 5.35380395,7.2161415 6.67763076,5.86070664 C8.47202397,4.0235257 10.5618767,2.58092081 12.8891922,1.57309122 C15.2995426,0.529254292 17.859696,-1.89182003e-13 20.4985251,-1.89182003e-13 Z" id="Combined-Shape" fill="#262626" fill-rule="nonzero"></path>
        </g>
    </g>
</svg>