<svg xmlns="http://www.w3.org/2000/svg" xmlns:xlink="http://www.w3.org/1999/xlink" width="147" height="48" viewBox="0 0 147 48">
    <defs>
        <path id="prefix__a" d="M0 0L146.4 0 146.4 48 0 48z"/>
        <path id="prefix__c" d="M0 0L147 0 147 48 0 48z"/>
    </defs>
    <g fill="none" fill-rule="evenodd">
        <mask id="prefix__b" fill="#fff">
            <use xlink:href="#prefix__a"/>
        </mask>
        <path fill="#000" d="M140.978 48H5.422C2.44 48 0 45.3 0 42V6c0-3.3 2.44-6 5.422-6h135.556c2.982 0 5.422 2.7 5.422 6v36c0 3.3-2.44 6-5.422 6" mask="url(#prefix__b)"/>
        <g>
            <mask id="prefix__d" fill="#fff">
                <use xlink:href="#prefix__c"/>
            </mask>
            <path fill="#A6A6A6" d="M141.556 0H5.444C2.45 0 0 2.7 0 6v36c0 3.3 2.45 6 5.444 6h136.112c2.994 0 5.444-2.7 5.444-6V6c0-3.3-2.45-6-5.444-6m-.121 1C143.952 1 146 3.257 146 6.031V41.97c0 2.774-2.048 5.031-4.565 5.031H5.565C3.048 47 1 44.743 1 41.969V6.03C1 3.257 3.048 1 5.565 1h135.87" mask="url(#prefix__d)"/>
        </g>
        <g fill="#FFF" fill-rule="nonzero">
            <g>
                <path d="M8.6 10.266H3.74l-1.168 3.447H.512L5.117.958h2.14l4.605 12.755H9.767l-1.166-3.447zM4.244 8.675h3.853l-1.9-5.595h-.053l-1.9 5.595zM21.807 9.064c0 2.89-1.546 4.746-3.88 4.746-1.207.064-2.343-.568-2.926-1.627h-.045v4.607h-1.908V4.414h1.847V5.96h.035c.61-1.051 1.747-1.683 2.961-1.644 2.36 0 3.916 1.866 3.916 4.748zm-1.962 0c0-1.883-.973-3.12-2.457-3.12-1.459 0-2.44 1.263-2.44 3.12 0 1.874.981 3.128 2.44 3.128 1.484 0 2.457-1.228 2.457-3.128zM32.043 9.064c0 2.89-1.547 4.746-3.881 4.746-1.207.064-2.343-.568-2.926-1.627h-.044v4.607h-1.91V4.414h1.849V5.96h.035c.609-1.051 1.746-1.683 2.96-1.644 2.36 0 3.917 1.866 3.917 4.748zm-1.962 0c0-1.883-.973-3.12-2.458-3.12-1.458 0-2.44 1.263-2.44 3.12 0 1.874.982 3.128 2.44 3.128 1.485 0 2.458-1.228 2.458-3.128zM38.807 10.16c.141 1.264 1.37 2.095 3.05 2.095 1.608 0 2.766-.83 2.766-1.971 0-.99-.698-1.583-2.351-1.99l-1.654-.398c-2.342-.565-3.429-1.66-3.429-3.438 0-2.201 1.918-3.713 4.64-3.713 2.696 0 4.544 1.512 4.606 3.713h-1.927c-.115-1.273-1.167-2.041-2.705-2.041s-2.59.777-2.59 1.908c0 .902.672 1.433 2.316 1.839l1.406.345c2.617.619 3.703 1.67 3.703 3.536 0 2.386-1.9 3.88-4.923 3.88-2.829 0-4.739-1.459-4.862-3.766h1.954zM50.76 2.213v2.2h1.768v1.512H50.76v5.127c0 .796.354 1.168 1.131 1.168.21-.004.42-.019.628-.045v1.503c-.35.065-.705.095-1.06.088-1.883 0-2.617-.707-2.617-2.51v-5.33H47.49V4.413h1.352V2.213h1.918zM53.551 9.064c0-2.926 1.723-4.765 4.41-4.765 2.697 0 4.412 1.839 4.412 4.765 0 2.934-1.706 4.764-4.411 4.764-2.705 0-4.41-1.83-4.41-4.764zm6.877 0c0-2.007-.92-3.192-2.466-3.192-1.547 0-2.467 1.194-2.467 3.192 0 2.015.92 3.19 2.467 3.19 1.546 0 2.466-1.175 2.466-3.19zM63.947 4.414h1.82v1.582h.045c.253-1.019 1.187-1.72 2.236-1.68.22 0 .44.023.654.071v1.786c-.277-.085-.567-.124-.857-.115-.561-.023-1.105.2-1.487.612-.382.411-.566.97-.502 1.527v5.516h-1.91v-9.3zM77.503 10.982c-.433 1.817-2.145 3.034-4.004 2.846-2.705 0-4.384-1.812-4.384-4.72 0-2.917 1.688-4.809 4.304-4.809 2.573 0 4.19 1.768 4.19 4.587v.654h-6.567v.116c-.062.692.177 1.377.656 1.881.479.504 1.15.778 1.845.753.927.087 1.8-.445 2.148-1.308h1.812zm-6.452-2.776H75.7c.035-.622-.192-1.23-.625-1.678-.433-.448-1.033-.695-1.656-.682-.628-.004-1.231.243-1.676.687-.445.443-.694 1.045-.692 1.673z" transform="translate(12 10) translate(29)"/>
            </g>
            <g>
                <path d="M2.924 9.374l.079-.983c.369.119.753.18 1.14.181.351 0 .487-.034.656-.272.414-.864.593-1.822.52-2.778 0-1.017-.316-1.311-1.118-1.311-.181 0-.385.011-.61.023-.433 1.754-1.15 3.426-2.124 4.948l-.938-.509c.915-1.315 1.584-2.785 1.976-4.338-.618.067-1.233.169-1.84.306L.46 3.646c.69-.125 1.514-.237 2.282-.305.158-.75.275-1.508.35-2.271l1.108.124c-.102.69-.227 1.38-.385 2.057h.44c1.436 0 2.125.711 2.125 2.225.062 1.155-.163 2.308-.655 3.355-.265.492-.8.777-1.356.723-.487-.003-.973-.064-1.446-.18zm3.637-6.09l.825-.554C8.53 3.834 9.22 5.326 9.318 6.912l-1.084.168c-.016-1.44-.62-2.811-1.673-3.795zM13.064 9.532l-.226-1.017c.283.023.656.034.882.034 2.236 0 3.084-.632 3.084-1.57 0-.746-.486-1.175-1.57-1.175-1.183.109-2.285.647-3.096 1.514l-.87-.384c-.165-1.48.173-2.972.96-4.236l1.005.327c-.626.846-.93 1.887-.858 2.937.906-.639 1.977-1.003 3.084-1.05 1.515 0 2.452.779 2.452 2.044 0 1.604-1.266 2.588-4.304 2.588-.147 0-.362-.012-.543-.012zm-1.05-7.501l.282-.995c1.503.23 2.987.57 4.44 1.017l-.271.983c-1.45-.468-2.94-.804-4.451-1.005zM21.183 8.753c1.165-.384 2.211-1.061 3.039-1.967-.656-.543-1.363-1.02-2.113-1.422l.621-.78c.756.385 1.475.838 2.147 1.355.54-.787.916-1.675 1.107-2.61h-2.881c-.662 1.073-1.494 2.03-2.463 2.836l-.825-.711c1.395-1.15 2.476-2.635 3.141-4.316l1.085.26c-.124.316-.248.643-.395.95h2.802l.802.372c-.397 3.124-2.475 5.779-5.412 6.914l-.655-.881zM25.95.867l.633-.306c.321.43.59.897.802 1.39l-.712.328c-.18-.5-.422-.974-.723-1.412zm1.412-.113l.644-.305c.326.443.602.92.825 1.424l-.712.304c-.19-.505-.444-.984-.757-1.423zM32.306 9.588l-.576-.915c2.413-.385 4.136-2.543 3.976-4.982h-4.744v2.271H29.82V2.73h2.836V1.07h1.14v1.66h2.114l1.04.295c-.137 3.208-1.21 5.66-4.644 6.563zM39.147 2.81l.633-.927c.988.452 1.92 1.017 2.778 1.684l-.723.972c-.823-.683-1.725-1.263-2.688-1.729zm.215 5.57c2.804-.422 5.232-2.173 6.519-4.7l.745.836c-1.395 2.607-3.919 4.422-6.834 4.914l-.43-1.05zM55.885 8.923h-7.106V2.2h7.106v6.723zm-5.987-5.684v4.644h4.857V3.24h-4.857zM66.059 5.905L58.072 5.905 58.072 4.753 66.059 4.753zM68.777 1.104h1.118v2.892c1.487.619 2.929 1.34 4.316 2.159l-.633.993c-1.175-.752-2.407-1.413-3.683-1.977v4.361h-1.118V1.104zm2.654.61l.667-.316c.326.48.596.995.803 1.536l-.735.329c-.177-.546-.424-1.067-.735-1.549zm1.288-.486l.678-.316c.343.476.628.992.848 1.536l-.735.328c-.202-.545-.467-1.065-.791-1.548z" transform="translate(12 10) translate(29 18)"/>
            </g>
            <path d="M17.923 14.76c.026-2.035 1.093-3.915 2.828-4.982-1.1-1.57-2.875-2.529-4.79-2.589-2.015-.211-3.968 1.206-4.995 1.206-1.047 0-2.628-1.185-4.33-1.15-2.24.073-4.278 1.315-5.368 3.274-2.32 4.018-.59 9.923 1.633 13.17 1.113 1.591 2.413 3.368 4.114 3.305 1.664-.07 2.286-1.062 4.295-1.062 1.99 0 2.574 1.062 4.309 1.022 1.786-.03 2.911-1.598 3.985-3.203.799-1.133 1.414-2.386 1.822-3.711-2.122-.897-3.5-2.976-3.503-5.28zM14.645 5.053c.974-1.169 1.453-2.672 1.337-4.189-1.488.157-2.862.868-3.849 1.992-.975 1.109-1.468 2.56-1.372 4.034 1.507.015 2.939-.662 3.884-1.837z" transform="translate(12 10)"/>
        </g>
    </g>
</svg>
