<?xml version="1.0" encoding="UTF-8"?>
<svg width="100px" height="34px" viewBox="0 0 100 34" version="1.1" xmlns="http://www.w3.org/2000/svg" xmlns:xlink="http://www.w3.org/1999/xlink">
    <title>Left-Arrow</title>
    <g id="Landing-Page" stroke="none" stroke-width="1" fill="none" fill-rule="evenodd">
        <g id="LandingPage-Web" transform="translate(-732.000000, -2176.000000)" fill="#000000">
            <g id="Group-23" transform="translate(0.000000, 1680.000000)">
                <g id="Group-17" transform="translate(0.000000, 69.000000)">
                    <g id="Group-12" transform="translate(732.000000, 207.000000)">
                        <path d="M16.3987258,250.007712 L15.7262397,247.638794 C15.6995779,247.544814 15.6371255,247.465451 15.5525033,247.418242 C15.467881,247.370741 15.3680442,247.359341 15.2750177,247.386088 L8.55363483,249.327349 C10.7543929,245.357424 13.4924442,241.665635 16.7362004,238.352102 C26.1528888,228.732609 38.6714752,223.434844 51.9858584,223.434844 C65.3002417,223.434844 77.8186832,228.732609 87.2355164,238.352102 C90.8799242,242.075022 93.8879263,246.274415 96.2104013,250.810408 L100,250.810408 C97.4027925,245.297499 93.9321212,240.304325 89.6585528,235.938751 C84.7675608,230.942362 79.0709186,227.019061 72.7272929,224.278172 C66.1571869,221.439358 59.1787495,220 51.9858584,220 C44.7929674,220 37.81453,221.439358 31.2444239,224.278172 C24.9006534,227.019061 19.2041561,230.942362 14.3130192,235.938751 C10.7045469,239.624986 7.67104218,243.760362 5.24988956,248.276624 L3.06434613,240.576763 C3.00884901,240.38135 2.80685686,240.268371 2.61312408,240.324203 L0.264422012,241.002373 C0.1713955,241.029266 0.0927141979,241.09226 0.0459111398,241.177616 C-0.0011817205,241.262971 -0.012484007,241.363674 0.0140328959,241.457507 L3.49861476,253.733117 C3.54454841,253.894767 3.69046382,254 3.84927544,254 C3.88245779,254 3.91621975,253.995323 3.94983681,253.985677 L3.97780272,253.977638 C3.97794762,253.977638 3.97809253,253.977638 3.97823743,253.977638 L16.1483366,250.462846 C16.3420694,250.406868 16.454078,250.203124 16.3987258,250.007712" id="Left-Arrow" transform="translate(50.000000, 237.000000) scale(1, -1) translate(-50.000000, -237.000000) "></path>
                    </g>
                </g>
            </g>
        </g>
    </g>
</svg>