<?xml version="1.0" encoding="UTF-8"?>
<svg width="100px" height="34px" viewBox="0 0 100 34" version="1.1" xmlns="http://www.w3.org/2000/svg" xmlns:xlink="http://www.w3.org/1999/xlink">
    <title>Right-Arrow</title>
    <g id="Landing-Page" stroke="none" stroke-width="1" fill="none" fill-rule="evenodd">
        <g id="LandingPage-Web" transform="translate(-608.000000, -2749.000000)" fill="#000000">
            <g id="Group-23" transform="translate(0.000000, 1680.000000)">
                <g id="Group-18" transform="translate(300.000000, 650.000000)">
                    <g id="Group-10" transform="translate(0.000000, 229.000000)">
                        <path d="M324.398726,220.007712 L323.72624,217.638794 C323.699578,217.544814 323.637126,217.465451 323.552503,217.418242 C323.467881,217.370741 323.368044,217.359341 323.275018,217.386088 L316.553635,219.327349 C318.754393,215.357424 321.492444,211.665635 324.7362,208.352102 C334.152889,198.732609 346.671475,193.434844 359.985858,193.434844 C373.300242,193.434844 385.818683,198.732609 395.235516,208.352102 C398.879924,212.075022 401.887926,216.274415 404.210401,220.810408 L408,220.810408 C405.402793,215.297499 401.932121,210.304325 397.658553,205.938751 C392.767561,200.942362 387.070919,197.019061 380.727293,194.278172 C374.157187,191.439358 367.178749,190 359.985858,190 C352.792967,190 345.81453,191.439358 339.244424,194.278172 C332.900653,197.019061 327.204156,200.942362 322.313019,205.938751 C318.704547,209.624986 315.671042,213.760362 313.24989,218.276624 L311.064346,210.576763 C311.008849,210.38135 310.806857,210.268371 310.613124,210.324203 L308.264422,211.002373 C308.171395,211.029266 308.092714,211.09226 308.045911,211.177616 C307.998818,211.262971 307.987516,211.363674 308.014033,211.457507 L311.498615,223.733117 C311.544548,223.894767 311.690464,224 311.849275,224 C311.882458,224 311.91622,223.995323 311.949837,223.985677 L311.977803,223.977638 C311.977948,223.977638 311.978093,223.977638 311.978237,223.977638 L324.148337,220.462846 C324.342069,220.406868 324.454078,220.203124 324.398726,220.007712" id="Right-Arrow" transform="translate(358.000000, 207.000000) scale(-1, -1) translate(-358.000000, -207.000000) "></path>
                    </g>
                </g>
            </g>
        </g>
    </g>
</svg>